<svg xmlns="http://www.w3.org/2000/svg" fill="none" viewBox="0 0 1450 1450"><g clip-path="url(#a)"><path fill="#FEF8F8" d="M0 200C0 89.543 89.543 0 200 0h1050c110.46 0 200 89.543 200 200v1050c0 110.46-89.54 200-200 200H200c-110.457 0-200-89.54-200-200z"/><path fill="url(#b)" d="M217.27 725.27c0-280.561 227.439-508 508-508 280.56 0 508 227.439 508 508 0 280.56-227.44 508-508 508s-508-227.44-508-508"/><path fill="url(#c)" d="M976.5 657.562c-279.885 1.221-507.017 223.47-517 500.658 77.322 47.56 168.342 75.06 265.781 75.06 280.559 0 507.999-227.44 507.999-507.999 0-.377-.03-.748-.03-1.125-75.87-42.705-163.46-67-256.75-66.594"/><path fill="url(#d)" d="M441.844 659.875c-80.385.351-156.418 18.965-224.219 51.844-.119 4.517-.344 9.016-.344 13.562 0 183.107 96.924 343.549 242.219 432.939 6.496-180.362 104.98-337.386 250.062-425.47-78.322-46.645-169.911-73.301-267.718-72.875"/><path stroke="#B61B20" stroke-miterlimit="10" stroke-width="40" d="M459.494 1158.21C314.2 1068.82 217.276 908.382 217.276 725.276c0-4.546.225-9.045.343-13.563 67.801-32.878 143.834-51.493 224.219-51.844 97.807-.426 189.396 26.231 267.719 72.875-145.083 88.084-243.567 245.108-250.063 425.466Zm0 0c9.984-277.184 237.116-499.432 517-500.653 93.286-.406 180.876 23.888 256.746 66.594.01.377.04.748.04 1.125 0 280.564-227.44 508.004-508.004 508.004-97.44 0-188.459-27.5-265.782-75.07Zm-242.23-432.946c0-280.56 227.44-508 508-508 280.556 0 507.996 227.44 507.996 508 0 280.556-227.44 507.996-507.996 507.996-280.561 0-508-227.44-508-507.996Z"/></g><defs><linearGradient id="b" x1="195" x2="1245" y1="720" y2="720" gradientUnits="userSpaceOnUse"><stop stop-color="#FFE8E8"/><stop offset=".424" stop-color="#FFCDCD"/><stop offset="1" stop-color="#FFE2E2"/></linearGradient><linearGradient id="c" x1="460" x2="1510" y1="1155" y2="1155" gradientUnits="userSpaceOnUse"><stop stop-color="#FFE8E8"/><stop offset=".424" stop-color="#FFCDCD"/><stop offset="1" stop-color="#FFE2E2"/></linearGradient><linearGradient id="d" x1="-75.9" x2="964.1" y1="1155" y2="1155" gradientUnits="userSpaceOnUse"><stop stop-color="#FFE8E8"/><stop offset=".424" stop-color="#FFCDCD"/><stop offset="1" stop-color="#FFE2E2"/></linearGradient><clipPath id="a"><path fill="#fff" d="M0 0h1450v1450H0z"/></clipPath></defs></svg>